<svg width="36" height="36" viewBox="0 0 36 36" fill="none" xmlns="http://www.w3.org/2000/svg">
<path d="M25.3029 25.3308L25.7219 25.582L25.9827 25.169L27.4227 22.8893L27.6991 22.4517L27.2523 22.1906L19.4 17.6005V8.76831V8.26831H18.9H16.2H15.7V8.76831V19.2903V19.5735L15.9429 19.7191L25.3029 25.3308ZM11.2988 1.79856C13.423 0.941356 15.7001 0.5 18 0.5C20.2999 0.5 22.577 0.941356 24.7012 1.79856C26.8253 2.65576 28.7546 3.91185 30.379 5.49449C32.0034 7.0771 33.2913 8.95523 34.1697 11.0213C35.0481 13.0873 35.5 15.3012 35.5 17.5366C35.5 22.0507 33.6595 26.3827 30.379 29.5788C27.0981 32.7752 22.6454 34.5732 18 34.5732C15.7001 34.5732 13.423 34.1319 11.2988 33.2747C9.17466 32.4175 7.24545 31.1614 5.62099 29.5788C2.34049 26.3827 0.5 22.0507 0.5 17.5366C0.5 13.0225 2.34049 8.69054 5.62099 5.49449C7.24545 3.91185 9.17466 2.65576 11.2988 1.79856Z" fill="#D99BFF" stroke="#D99BFF"/>
</svg>
