<svg width="37" height="36" viewBox="0 0 37 36" fill="none" xmlns="http://www.w3.org/2000/svg">
<path d="M13.585 30.2316L17.6799 26.272H7.76285V22.5188H21.3478V22.744L25.4621 18.7657H7.76285V15.0126H27.17V17.1143L29.5764 14.8061C30.508 13.9054 31.7306 13.3987 33.0697 13.3987C33.7102 13.3987 34.3506 13.5301 34.9328 13.7553V3.75314C34.9328 2.75775 34.5239 1.80312 33.796 1.09927C33.0681 0.395419 32.0808 0 31.0514 0H3.88142C1.72723 0 0 1.67015 0 3.75314V30.0251C0 31.0205 0.408934 31.9752 1.13684 32.679C1.86475 33.3829 2.85201 33.7783 3.88142 33.7783H13.585V30.2316ZM7.76285 7.50628H27.17V11.2594H7.76285V7.50628ZM36.2913 21.2991L34.3506 23.1756L30.3721 19.3287L32.3128 17.4521C32.5124 17.263 32.7806 17.1571 33.06 17.1571C33.3394 17.1571 33.6077 17.263 33.8072 17.4521L36.2913 19.8541C36.6989 20.2482 36.6989 20.905 36.2913 21.2991ZM17.4664 31.7891L29.2271 20.4171L33.2056 24.2641L21.4643 35.6548H17.4664V31.7891Z" fill="#D99BFF"/>
</svg>
