<svg width="71" height="76" viewBox="0 0 71 76" fill="none" xmlns="http://www.w3.org/2000/svg">
<path d="M24.85 18.9492V26.5289H39.05V34.1086H31.95C30.067 34.1086 28.2611 34.9072 26.9295 36.3287C25.598 37.7501 24.85 39.678 24.85 41.6883V56.8477H46.15V49.268H31.95V41.6883H39.05C40.933 41.6883 42.7389 40.8897 44.0705 39.4683C45.402 38.0468 46.15 36.1189 46.15 34.1086V26.5289C46.15 24.5187 45.402 22.5907 44.0705 21.1693C42.7389 19.7478 40.933 18.9492 39.05 18.9492H24.85ZM35.5 0C40.1619 0 44.7782 0.980273 49.0853 2.88485C53.3923 4.78942 57.3058 7.581 60.6023 11.1002C63.8988 14.6194 66.5137 18.7973 68.2977 23.3953C70.0818 27.9934 71 32.9216 71 37.8985C71 47.9498 67.2598 57.5894 60.6023 64.6967C53.9447 71.8041 44.9152 75.7969 35.5 75.7969C30.8381 75.7969 26.2218 74.8166 21.9147 72.9121C17.6077 71.0075 13.6942 68.2159 10.3977 64.6967C3.74017 57.5894 0 47.9498 0 37.8985C0 27.8472 3.74017 18.2075 10.3977 11.1002C17.0553 3.99286 26.0848 0 35.5 0Z" fill="#D99BFF"/>
</svg>
