<svg width="71" height="71" viewBox="0 0 71 71" fill="none" xmlns="http://www.w3.org/2000/svg">
<path d="M28.4167 17.7913V24.8747H35.5V53.208H42.5834V17.7913H28.4167ZM35.5 0.0830078C40.151 0.0830078 44.7565 0.999087 49.0534 2.77894C53.3504 4.5588 57.2547 7.16757 60.5434 10.4563C63.8321 13.7451 66.4409 17.6494 68.2208 21.9463C70.0006 26.2432 70.9167 30.8487 70.9167 35.4997C70.9167 44.8928 67.1853 53.9011 60.5434 60.543C53.9015 67.185 44.8931 70.9163 35.5 70.9163C30.8491 70.9163 26.2436 70.0003 21.9467 68.2204C17.6497 66.4406 13.7454 63.8318 10.4567 60.543C3.81476 53.9011 0.083374 44.8928 0.083374 35.4997C0.083374 26.1066 3.81476 17.0982 10.4567 10.4563C17.0986 3.8144 26.107 0.0830078 35.5 0.0830078Z" fill="#D99BFF"/>
</svg>
