<svg width="71" height="71" viewBox="0 0 71 71" fill="none" xmlns="http://www.w3.org/2000/svg">
<path d="M46.125 46.1247V40.8122C46.125 39.4032 45.5653 38.052 44.569 37.0557C43.5727 36.0594 42.2214 35.4997 40.8125 35.4997C42.2214 35.4997 43.5727 34.94 44.569 33.9437C45.5653 32.9474 46.125 31.5961 46.125 30.1872V24.8747C46.125 22.9961 45.3787 21.1944 44.0503 19.866C42.7219 18.5376 40.9203 17.7913 39.0416 17.7913H24.875V24.8747H39.0416V31.958H31.9583V39.0413H39.0416V46.1247H24.875V53.208H39.0416C40.9203 53.208 42.7219 52.4617 44.0503 51.1333C45.3787 49.805 46.125 48.0033 46.125 46.1247ZM35.5 0.0830078C40.151 0.0830078 44.7564 0.999087 49.0534 2.77894C53.3503 4.5588 57.2546 7.16757 60.5433 10.4563C63.8321 13.7451 66.4409 17.6494 68.2207 21.9463C70.0006 26.2432 70.9166 30.8487 70.9166 35.4997C70.9166 44.8928 67.1853 53.9011 60.5433 60.543C53.9014 67.185 44.8931 70.9163 35.5 70.9163C30.849 70.9163 26.2436 70.0003 21.9466 68.2204C17.6497 66.4406 13.7454 63.8318 10.4566 60.543C3.8147 53.9011 0.083313 44.8928 0.083313 35.4997C0.083313 26.1066 3.8147 17.0982 10.4566 10.4563C17.0985 3.8144 26.1069 0.0830078 35.5 0.0830078Z" fill="#D99BFF"/>
</svg>
