<svg width="23" height="33" viewBox="0 0 23 33" fill="none" xmlns="http://www.w3.org/2000/svg">
<path d="M21.7139 6.76698C23.3444 10.2701 22.9731 14.4029 21.1812 17.7607C19.6637 20.489 17.4843 22.7975 15.6278 25.332C14.8207 26.4621 14.0135 27.6728 13.4162 28.9805C13.2063 29.4163 13.061 29.8683 12.8996 30.3204C12.7381 30.7724 12.5929 31.2244 12.4476 31.6764C12.3023 32.0962 12.1247 32.5966 11.592 32.5966C10.9624 32.5966 10.7848 31.8863 10.6556 31.402C10.2682 30.2235 9.88074 29.0935 9.28343 28.0118C8.60541 26.7365 7.7498 25.558 6.87805 24.4118L21.7139 6.76698ZM6.94263 10.6737L1.61527 17.002C2.60002 19.0845 4.06908 20.8603 5.47357 22.6361C5.81258 23.0396 6.15159 23.4594 6.47446 23.8952L13.2063 15.9204L13.1417 15.9365C10.7848 16.7437 8.16953 15.549 7.23321 13.2244C7.10406 12.9499 7.0072 12.6271 6.94263 12.3042C6.85231 11.7699 6.85231 11.2242 6.94263 10.6899V10.6737ZM2.84217 4.53917L2.82603 4.55532C0.210781 7.86474 -0.241238 12.4656 1.32468 16.3562L7.76595 8.7042L7.68523 8.62348L2.84217 4.53917ZM15.1758 0.890737L9.97761 7.04142L10.0422 7.02527C12.2054 6.28267 14.6269 7.219 15.7247 9.1885C15.9669 9.64052 16.1606 10.1248 16.2251 10.6091C16.322 11.2226 16.3543 11.6585 16.2413 12.2558V12.2719L21.4072 6.13738C20.0554 3.68378 17.8404 1.81974 15.192 0.90688L15.1758 0.890737ZM8.18568 8.20375L14.4978 0.697015L14.4332 0.680871C13.4969 0.438718 12.5444 0.30957 11.592 0.30957C8.41169 0.30957 5.40899 1.68177 3.27805 4.03872L3.24576 4.05487L8.18568 8.20375Z" fill="#D99BFF"/>
</svg>
