<svg width="51" height="30" viewBox="0 0 51 30" fill="none" xmlns="http://www.w3.org/2000/svg">
<path d="M25.2222 0C27.1733 0 29.0444 0.759699 30.4241 2.11197C31.8037 3.46424 32.5787 5.29832 32.5787 7.21072C32.5787 9.12312 31.8037 10.9572 30.4241 12.3095C29.0444 13.6617 27.1733 14.4214 25.2222 14.4214C23.2712 14.4214 21.4 13.6617 20.0204 12.3095C18.6408 10.9572 17.8658 9.12312 17.8658 7.21072C17.8658 5.29832 18.6408 3.46424 20.0204 2.11197C21.4 0.759699 23.2712 0 25.2222 0ZM10.5093 5.15051C11.6863 5.15051 12.7793 5.45954 13.7251 6.0158C13.4098 8.96189 14.2926 11.8874 16.1002 14.1742C15.0493 16.152 12.9474 17.5117 10.5093 17.5117C8.83693 17.5117 7.23308 16.8606 6.05056 15.7015C4.86804 14.5424 4.20371 12.9703 4.20371 11.3311C4.20371 9.69193 4.86804 8.11986 6.05056 6.96077C7.23308 5.80168 8.83693 5.15051 10.5093 5.15051ZM39.9352 5.15051C41.6075 5.15051 43.2114 5.80168 44.3939 6.96077C45.5764 8.11986 46.2408 9.69193 46.2408 11.3311C46.2408 12.9703 45.5764 14.5424 44.3939 15.7015C43.2114 16.8606 41.6075 17.5117 39.9352 17.5117C37.4971 17.5117 35.3952 16.152 34.3443 14.1742C36.176 11.8549 37.0266 8.93338 36.7194 6.0158C37.6652 5.45954 38.7582 5.15051 39.9352 5.15051ZM11.5602 26.2676C11.5602 22.003 17.6766 18.5418 25.2222 18.5418C32.7679 18.5418 38.8843 22.003 38.8843 26.2676V29.873H11.5602V26.2676ZM0 29.873V26.7827C0 23.919 3.9725 21.5085 9.35325 20.8081C8.11315 22.209 7.35649 24.1456 7.35649 26.2676V29.873H0ZM50.4445 29.873H43.088V26.2676C43.088 24.1456 42.3313 22.209 41.0912 20.8081C46.472 21.5085 50.4445 23.919 50.4445 26.7827V29.873Z" fill="#D99BFF"/>
</svg>
